# xmcd
#
# Track frame offsets: 
#        150
#        20347
#        36597
#        49907
#        71750
#        88125
#        102025
#        114685
#        130780
#        139790
#        158140
#
# Disc length: 2353 seconds
#
# Revision: 2
# Processed by: cddbd v1.5PL3 Copyright (c) Steve Scherf et al.
# Submitted via: ExactAudioCopy v0.95a3
#
DISCID=99092f0b
DTITLE=John Denver - Farewell Andromeda
DYEAR=1900
DGENRE=Country
TTITLE0=I'd Rather Be A Cowboy (Lady's Chains)
TTITLE1=Berkeley Woman
TTITLE2=Please, Daddy
TTITLE3=Angels From Montgomery
TTITLE4=River Of Love
TTITLE5=Rocky Mountain Suite (Cold Nights In Canada)
TTITLE6=Whiskey Basin Blues
TTITLE7=Sweet Misery
TTITLE8=Zachary And Jennifer
TTITLE9=We Don't Live Here No More
TTITLE10=Farewell Andromeda (Welcome To My Morning)
EXTD=
EXTT0=
EXTT1=
EXTT2=
EXTT3=
EXTT4=
EXTT5=
EXTT6=
EXTT7=
EXTT8=
EXTT9=
EXTT10=
PLAYORDER=
